<svg width="310" height="232" viewBox="0 0 310 232" fill="none" xmlns="http://www.w3.org/2000/svg">
<path fill-rule="evenodd" clip-rule="evenodd" d="M86.0776 137.48C87.4866 136.519 90.3682 133.078 91.8779 132.283C95.2349 130.515 110.19 127.039 110.676 126.834C111.417 126.521 116.228 125.428 119.031 124.738C125.614 123.116 149.202 112.644 155.419 109.958C156.213 112.049 162.765 121.277 161.641 122.223C157.94 125.336 151.307 129.213 147.02 131.445C143.553 133.249 139.88 134.743 136.173 135.962C131.964 137.346 129.075 138.831 124.88 140.247C120.752 141.641 125.685 145.999 127.804 146.899C130.182 147.909 133.864 148.422 136.293 149.298C132.016 155.951 128.425 164.026 127.706 171.996C127.533 173.914 126.072 175.672 123.696 175.098C122.47 174.802 111.157 173.293 109.312 172.873C96.9978 170.062 74.8904 155.341 80.5834 140.247C81.8876 140.85 84.8653 138.307 86.0776 137.48Z" fill="#7FBBCA"/>
<path fill-rule="evenodd" clip-rule="evenodd" d="M92.9671 57.3958C93.8871 57.3181 96.2657 55.4788 95.0177 54.5485C93.7583 53.6098 92.8534 56.7553 92.9671 57.3958ZM45.0438 64.4503C45.2843 64.4079 45.1793 63.0906 44.8007 62.9223C43.6057 62.3914 43.5047 64.3871 43.4756 64.9212C43.4392 65.5953 43.3549 67.4938 44.8079 66.9733C45.6328 66.6779 45.121 64.9556 45.0438 64.4503ZM115.594 70.6038C115.561 71.7796 117.934 74.0404 118.819 72.6842C119.563 71.5448 115.655 68.2634 115.594 70.6038ZM31.6901 44.0874C32.3777 45.8428 35.7781 43.4503 35.9045 42.1626C36.164 39.5255 31.6546 42.3327 31.6901 44.0874ZM60.0601 51.6562C61.6437 51.526 63.7275 49.5109 65.2545 48.7581C66.2879 48.2487 69.0997 47.6415 69.4055 46.4849C69.6717 45.4799 64.9008 47.6311 64.4934 47.8221C62.6218 48.6998 60.9342 49.7003 60.0601 51.6562ZM178.943 37.7604C180.205 36.7836 181.739 36.1534 183.357 36.1947C184.165 36.2153 185.851 36.7213 185.914 35.3227C186.017 33.0484 178.881 35.8221 177.766 36.2682C178.159 36.7659 178.551 37.2631 178.943 37.7604ZM100.201 126.388C99.2749 124.849 97.6094 123.959 96.357 122.646C96.8159 124.802 95.7812 126.719 95.0701 128.688C96.7805 127.921 98.4905 127.154 100.201 126.388ZM261.007 159.198C261.518 157.489 262.029 155.789 262.626 154.105C263.293 152.221 263.625 152.057 262.027 150.74C260.701 153.249 259.374 155.757 258.048 158.267C258.992 158.669 259.977 159.06 261.007 159.198ZM123.742 35.4539C121.986 33.4728 113.756 33.3484 114.775 37.7209C115.13 39.2477 117.153 37.6258 118.421 37.2699C119.679 36.9165 123.241 36.8696 123.742 35.4539ZM123.44 63.5024C123.227 62.9968 122.802 61.172 122.172 61.0282C121.557 60.888 119.133 62.8021 118.677 63.0942C116.403 64.5523 114.187 66.1209 111.972 67.6667C112.82 67.6667 113.59 67.3644 114.433 67.3578C115.435 67.3493 116.154 67.7612 117.131 67.5261C119.23 67.0217 121.666 64.6937 123.44 63.5024ZM125.715 18.2973C125.912 17.3911 136.201 20.1113 137.438 20.6094C138.112 20.8803 141.588 22.6889 140.841 19.9631C140.416 18.4106 136.399 17.2272 135.112 16.8017C131.839 15.7206 128.389 14.9516 124.904 15.1299C124.228 15.1643 119.103 15.4603 121.243 17.5219C121.98 18.2319 124.623 18.0081 125.715 18.2973ZM127.968 142.799C129.884 143.743 131.842 144.465 133.845 145.203C134.736 145.531 136.122 146.39 137.104 146.174C137.908 145.997 138.166 144.771 138.589 143.95C140.133 140.948 141.978 138.527 144.265 136.051C143.203 135.276 137.812 138.696 136.478 139.201C135.143 139.706 133.883 140.215 132.576 140.819C131.345 141.387 128.917 141.896 127.968 142.799ZM161.91 117.208C164.704 115.943 167.352 113.699 169.644 111.69C172.275 109.383 174.633 106.965 176.559 103.98C175.4 104.04 172.841 107.771 172.813 103.709C172.798 101.636 175.635 99.5951 176.516 97.6729C174.325 96.4351 172.317 103.832 169.804 102.039C167.382 100.311 171.203 94.3714 171.939 92.4972C170.519 91.5515 162.427 102.138 161.255 103.493C160.523 104.341 158.79 105.47 158.377 106.459C158.131 107.048 158.095 108.916 158.215 109.458C158.462 110.59 159.718 111.947 160.277 113.001C160.984 114.336 161.6 115.724 161.91 117.208ZM277.411 155.377C274.995 151.964 277.49 150.475 279.455 147.642C281.026 145.376 282.472 142.878 283.467 140.347C285.958 134.018 288.206 128.133 289.436 121.438C287.743 122.211 286.685 125.155 285.838 126.706C284.699 128.792 283.697 130.981 282.431 133.001C280.063 136.782 277.737 140.816 274.724 144.093C273.359 145.578 272.204 147.249 270.629 148.587C269.909 149.199 268.532 149.701 268.002 150.465C267.502 151.187 268.061 151.648 267.872 152.51C267.676 153.395 266.783 154.338 266.399 155.189C265.895 156.308 265.426 157.429 264.864 158.523C264.25 159.716 264.083 160.34 263.917 161.506C263.737 162.78 264.291 162.913 263.179 164.087C265.194 164.977 267.209 165.866 269.225 166.756C269.905 167.056 270.585 167.356 271.265 167.656C271.409 167.387 271.552 167.118 271.695 166.849C272.249 166.311 272.759 164.983 273.075 164.272C274.4 161.304 275.895 158.324 277.411 155.377ZM82.7926 141.049C77.0701 156.128 97.1795 168.825 109.558 171.633C111.273 172.022 112.946 172.531 114.653 172.949C116.514 173.404 118.166 173.314 120.024 173.504C121.502 173.656 122.206 174.799 123.598 175.114C125.925 175.64 125.783 173.889 125.95 172.014C126.656 164.061 130.711 156.389 135.003 149.753C133.042 149.051 131.1 148.285 129.165 147.517C127.509 146.859 124.973 145.01 123.193 144.911C121.876 144.839 119.87 145.965 118.591 146.459C116.462 147.281 114.326 147.982 112.106 148.543C108.225 149.524 103.906 150.861 99.8895 150.962C98.7317 150.991 95.5555 151.531 94.7223 150.815C93.1335 149.449 95.3388 148.311 96.6688 147.823C104.596 144.918 113.012 143.683 120.962 140.704C125.052 139.171 129.101 137.459 133.217 135.948C136.766 134.647 140.482 133.494 143.911 131.893C148.44 129.779 152.988 127.145 156.909 124.043C157.694 123.422 159.339 122.5 159.877 121.6C160.351 120.808 160.292 121.598 160.193 120.638C160.123 119.948 159.279 119.013 158.932 118.361C157.64 115.932 156.472 113.436 155.49 110.865C149.235 113.55 143.284 117.205 137.121 120.075C130.917 122.964 123.92 125.002 117.283 126.627C114.459 127.319 111.211 127.537 108.621 128.905C107.52 129.485 106.432 130.157 105.253 130.493C104.905 131.161 104.563 131.292 104.225 130.886C104.013 130.648 103.74 130.548 103.404 130.584C102.683 130.707 101.948 131.048 101.273 131.309C97.8603 132.634 94.5921 134.292 91.3516 135.985C89.8158 136.786 88.2405 137.576 86.7706 138.491C85.9827 138.982 85.2768 139.477 84.6321 140.151C83.8594 140.959 84.0433 141.623 82.7926 141.049ZM211.563 51.5143C213.009 51.5377 214.327 50.7538 215.835 50.7973C218.207 50.866 220.084 52.7063 221.46 54.481C224.184 57.9926 223.489 62.2287 222.121 66.1585C221.467 68.0365 220.568 69.8392 219.445 71.4832C218.451 72.9385 216.674 74.3151 215.98 75.9357C214.835 78.6082 217.144 77.4718 218.558 76.9009C220.335 76.1827 222.001 75.2899 223.509 74.0874C230.233 68.7279 235.348 61.2782 237.061 52.7226C237.897 48.5485 237.832 43.6686 234.927 40.2616C232.271 37.1464 227.686 36.1285 223.767 36.7061C219.53 37.3309 215.691 39.1269 212.241 41.439C211.239 42.1108 210.322 42.8441 209.381 43.5954C208.146 44.581 207.407 44.607 207.716 46.1519C207.945 47.3003 208.57 48.4903 208.973 49.5923C209.726 51.6566 209.451 52.1907 211.563 51.5143ZM216.174 87.1001L215.881 87.6004C217.898 87.6967 219.777 85.9157 221.496 85.0461C223.729 83.916 225.711 82.3745 227.668 80.8178C231.118 78.0721 234.614 74.9781 237.182 71.3737C242.94 63.2936 248.169 53.0498 246.598 42.8056C244.905 31.7646 235.257 27.5146 224.976 28.9762C220.343 29.6348 216.207 31.7052 212.06 33.8069C209.97 34.8666 208.206 36.2411 206.292 37.5717C205.298 38.2625 204.392 38.3521 204.327 39.56C204.278 40.4702 205.85 42.5284 206.275 43.3532C211.481 38.0377 217.091 33.6403 224.953 33.3686C234.306 33.0454 239.837 41.9218 239.796 50.4218C239.756 58.7577 236.164 66.7762 230.437 72.7671C227.835 75.4897 225.354 77.6744 222.158 79.6614C220.565 80.652 219.39 81.5413 217.609 82.199C216.35 82.6646 216.481 82.4193 216.159 83.5865C215.886 84.5771 216.165 86.0714 216.174 87.1001ZM165.351 200.354C165.23 201.856 164.925 203.335 164.585 204.8C164.463 205.327 163.777 206.988 163.897 207.579C164.096 208.557 163.831 207.928 164.687 208.439C165.58 208.971 166.619 208.939 167.597 209.101C168.2 209.2 170.411 210.242 170.783 210.078C171.433 209.79 171.412 208.776 172.126 208.374C173.097 207.827 174.529 208.296 175.446 208.724C177.897 209.869 179.581 212.237 181.952 213.534C186.164 215.836 191.161 217.11 195.86 217.636C198.405 217.921 201.01 218.421 203.523 217.824C205.504 217.354 208.078 217.397 209.155 215.27C199.587 212.636 184.983 209.414 181.2 198.424C179.144 200.29 175.707 199.285 173.222 199.027C170.488 198.744 168.045 198.81 165.544 197.562C165.361 198.543 165.306 199.357 165.351 200.354ZM80.6391 132.289C85.143 132.562 89.4129 130.428 92.1845 126.829C92.8668 125.942 93.5664 125.037 93.976 123.987C94.0649 123.721 94.1534 123.455 94.2422 123.188C94.6722 122.453 94.4839 122.106 93.6777 122.148C93.2236 121.525 92.072 121.315 92.3995 120.185C92.6463 119.332 93.5566 119.318 94.3481 119.05C93.954 118.387 93.7183 118.055 93.1541 117.465C91.6881 118.785 89.0277 121.376 87.9976 118.344C87.5029 116.888 88.3739 115.496 88.158 114.092C88.0691 113.512 87.3336 112.028 86.9074 111.681C84.6368 109.831 81.3666 110.596 78.9576 111.685C77.2973 112.436 76.9401 112.788 76.6693 114.509C76.3942 116.259 76.139 118.008 75.8338 119.752C76.8301 119.233 77.0116 118.11 77.6613 117.302C77.9046 117.745 78.148 118.189 78.3922 118.633C78.735 118.44 79.0554 118.45 79.3525 118.664C79.8333 119.403 79.5307 120.5 79.3829 121.276C80.9861 121.126 81.6637 122.916 80.0474 123.642C78.3731 124.393 77.6181 122.345 77.5614 121.019C76.9367 121.766 76.2951 121.366 75.8596 121.75C75.4246 122.133 75.2532 122.933 75.0983 123.809C74.8439 125.247 74.193 127.323 74.7952 128.767C75.6895 130.911 78.5407 132.026 80.6391 132.289ZM211.15 63.43C209.66 65.5044 207.119 68.2198 206.587 70.726C208.229 69.7619 211.699 65.1227 212.593 68.8182C213.107 70.9394 210.474 73.467 209.828 75.5208C212.416 74.6684 214.26 71.9986 215.875 69.938C217.935 67.3109 220.037 63.8476 220.563 60.507C220.988 57.8037 219.115 55.2841 216.331 55.0192C214.909 54.8836 213.424 55.1096 212.05 55.4398C211.424 55.59 210.489 55.7766 209.93 56.1127C209.228 56.5345 209.132 57.5225 208.47 56.7006C207.592 58.3582 206.713 60.0157 205.835 61.6729C206.709 61.3552 208.493 60.0073 209.449 60.1467C210.844 60.3505 211.131 62.3792 211.15 63.43ZM71.6138 22.8509C67.7067 22.9662 63.6229 23.7989 59.9243 25.0368C59.0058 25.3445 55.1309 26.4387 55.9469 28.0249C56.4862 29.0733 59.3943 27.5918 60.2734 27.3447C64.0411 26.2857 67.9206 25.5873 71.7798 24.9499C72.7145 24.7957 75.8843 24.8109 76.0479 23.5849C76.2483 22.089 72.717 22.8492 71.6138 22.8509ZM177.945 193.474C175.828 193.733 173.794 193.636 171.675 193.377C169.891 193.158 168.074 192.427 166.299 192.427C166.299 194.329 166.17 194.341 168.175 194.748C169.574 195.032 170.993 195.192 172.407 195.39C174.897 195.738 177.661 196.716 180.181 196.213C180.12 195.883 179.927 193.655 179.665 193.434C179.518 193.311 178.159 193.476 177.945 193.474ZM143.719 52.7671C144.311 53.1447 145.672 54.6505 146.378 54.6771C146.126 52.9337 144.183 49.8984 141.951 50.9757C141.404 51.2399 140.256 52.5553 140.775 53.1356C141.053 53.4458 142.994 52.7691 143.719 52.7671ZM123.073 68.2759C123.094 67.9721 123.116 67.6683 123.139 67.3646C122.32 67.8465 121.306 68.0746 120.724 68.851C121.423 69.1608 122.121 69.471 122.82 69.7813C122.904 69.2794 122.988 68.7777 123.073 68.2759ZM187.562 114.561C191.431 115.917 194.978 117.728 197.826 120.802C200.287 123.461 201.444 128.145 202.045 131.63C203.532 140.253 200.663 148.246 198.771 156.495C197.812 160.68 196.379 164.707 195.037 168.784C193.866 172.343 192.862 176.071 191.245 179.456C189.874 182.326 188.122 185.156 186.916 188.133C186.267 189.736 185.216 195.234 182.752 193.507C182.08 195.266 181.917 195.117 182.635 196.338C183.156 197.223 184.92 198.451 185.752 199.171C187.971 201.092 190.781 202.674 193.383 204.018C198.15 206.48 203.26 208.323 208.169 210.567C210.339 211.561 212.692 212.734 212.205 215.576C211.797 217.958 210.42 219.764 208.272 220.824C206.256 221.819 203.371 222.588 201.153 222.9C199.836 223.085 199.535 222.537 198.461 222.347C197.267 222.137 195.873 222.544 194.641 222.534C189.11 222.485 184.267 221.092 179.798 217.882C178.201 216.735 175.849 213.623 173.759 213.623C172.691 213.623 172.916 214.273 171.976 214.654C170.816 215.124 168.818 214.237 167.678 214.028C165.248 213.585 162.778 213.134 161.16 211.039C159.411 208.776 160.033 205.973 160.785 203.459C161.632 200.626 163.057 197.752 163.663 194.875C163.81 194.176 163.946 192.872 163.797 192.16C163.564 191.056 162.45 190.397 162.416 189.201C162.406 188.837 162.926 188.357 163.017 187.982C163.218 187.157 163.187 186.302 163.269 185.462C163.417 183.965 163.758 182.531 163.993 181.052C164.528 177.685 165.583 174.682 166.604 171.438C167.595 168.289 168.537 165.946 170.453 163.221C171.444 161.809 174.761 156.779 173.141 155.331C170.924 159.69 168.332 163.089 164.939 166.558C162.344 169.213 159.807 172.78 156.56 174.67C152.989 176.749 148.625 177.971 144.682 179.07C142.807 179.592 141.251 180.751 139.229 180.966C137.038 181.198 134.807 180.924 132.662 180.435C132.057 180.298 130.315 179.368 129.769 179.428C128.963 179.515 127.805 180.952 126.921 181.216C124.77 181.858 123.301 180.631 121.67 179.497C119.899 178.267 119.363 177.961 117.32 177.813C114.818 177.632 112.384 176.749 109.922 176.208C105.594 175.258 101.916 173.331 97.9817 171.315C93.4723 169.005 89.6151 165.818 86.2162 162.053C81.2196 156.519 74.2612 141.183 82.4232 135.813C77.6182 135.16 73.2174 133.06 72.6317 127.617C72.3257 124.768 72.9017 121.613 73.6173 118.868C73.9438 117.614 74.3333 116.368 74.7064 115.127C74.9873 114.708 75.1361 114.25 75.1516 113.752C75.3239 113.106 75.0753 112.784 74.4058 112.787C73.1402 111.306 72.1886 109.999 71.9329 107.896C71.8524 107.229 71.7803 106.208 72.254 105.641C72.4733 105.413 72.7378 105.261 73.0467 105.185C73.7883 105.227 73.9979 104.861 73.6756 104.088C74.0357 102.992 73.5016 102.138 74.8586 101.68C75.2937 101.773 75.7267 101.874 76.1581 101.984C76.7085 102.235 77.0665 102.053 77.233 101.439C78.5115 100.939 77.9217 100.198 79.6589 100.843C80.7103 101.233 81.7105 101.904 82.476 102.722C83.4364 102.105 81.2523 98.2912 81.1794 97.0744C81.0067 94.2063 82.1914 91.8348 83.7328 89.4788C86.7289 84.9006 90.9109 80.9638 95.0347 77.4216C102.934 70.6381 111.232 64.18 120.151 58.7755C116.472 56.2178 112.173 55.5245 107.795 56.7132C103.759 57.8091 100.487 59.7994 96.7719 61.5405C93.3301 63.1528 89.6767 63.8151 88.5793 59.4152C87.3497 54.4868 91.2727 52.6572 94.7915 50.4472C93.9128 49.7912 91.0203 50.2601 89.9262 50.3377C87.4893 50.5101 85.1589 51.0608 82.7908 51.5478C81.6552 51.781 80.6118 51.7286 79.4866 51.9571C77.814 52.2969 76.0676 52.6777 74.3752 53.1618C70.3491 54.3144 66.3528 56.0634 62.8738 58.4203C59.8668 60.4562 57.7808 63.331 55.3582 65.979C52.5952 68.9981 49.9479 71.9685 45.8518 73.0737C43.934 73.5913 41.6841 74.0611 40.3242 72.3464C39.059 70.7522 38.9886 68.8307 39.0301 66.8812C39.1214 62.5752 41.1999 57.922 43.6175 54.4033C46.2417 50.5839 49.7563 48.3965 53.0773 45.3221C48.2774 45.6656 43.6384 48.1982 39.2241 49.9485C38.2952 50.3172 37.3574 50.7311 36.4234 51.0721C35.4274 51.4358 34.7675 51.2131 33.8134 51.3796C31.6356 51.76 29.7651 52.6786 27.6469 51.2139C23.6392 48.4435 27.6544 42.8075 30.4136 41.0782C34.2569 38.6698 38.1669 36.6418 42.4009 34.9238C40.1087 32.4353 42.0664 28.8839 44.1792 27.1185C46.8525 24.8846 50.2565 23.6044 53.4777 22.4086C56.0252 21.4628 58.527 20.5547 61.1735 19.9855C63.9554 19.3874 67.2084 18.4734 70.0314 18.5611C72.6787 18.6433 75.0262 18.1765 77.7075 18.1018C79.9385 18.0397 82.1746 18.0934 84.4052 18.0356C90.407 17.8804 96.431 18.2855 102.297 18.7176C97.6493 5.1152 128.261 9.31587 134.792 11.0926C140.727 12.7074 147.528 14.5806 152.513 18.4122C154.625 20.035 156.631 21.8801 158.505 23.7735C161.269 26.5669 162.8 30.2252 164.262 33.8362C167.971 32.0175 171.518 30.0357 175.576 29.1339C179.438 28.2761 183.393 27.1134 187.278 26.4654C190.231 25.9726 194.517 25.6383 197.003 27.7254C199.702 29.9925 201.109 33.5203 202.72 36.5416C210.459 29.1922 219.09 23.8305 230.123 24.187C240.92 24.536 248.019 33.8676 249.328 43.9799C250.77 55.1222 245.811 66.7654 239.089 75.3941C236.075 79.2638 232.956 83.001 228.899 85.888C226.887 87.3191 224.765 88.887 222.559 90.0043C221.459 90.5613 220.256 91.0647 219.101 91.4933C218.58 91.6867 218.043 91.8809 217.501 92.0122C215.954 92.388 216.254 91.8864 215.679 93.2424C215.212 94.3434 215.269 96.2376 215.069 97.446C214.841 98.8272 214.705 100.227 214.371 101.59C213.793 103.951 213.191 106.255 212.467 108.561C211.096 112.925 209.252 117.324 206.992 121.304C208.908 122.137 211.592 122.221 213.64 122.474C215.856 122.747 218.075 123.321 220.378 123.965C224.991 125.256 229.113 126.346 233.499 128.278C238.053 130.285 242.112 133.281 246.497 135.666C250.529 137.858 254.605 140.605 258.35 143.237C259.241 143.863 259.792 144.408 260.502 145.201C261.227 146.011 261.458 146.17 262.325 146.872C262.716 147.188 263.853 148.785 264.3 148.843C265.099 148.95 264.976 148.352 265.604 147.518C266.914 145.778 268.742 144.429 270.043 142.645C271.129 141.156 272.261 139.649 273.421 138.37C276.228 135.273 278.554 131.84 280.55 128.127C281.589 126.194 282.682 124.355 283.811 122.53C284.934 120.714 286.93 118.317 289.167 118.425C288.987 117.5 288.416 117.346 289.402 116.78C290.037 116.416 291.273 117.003 291.763 117.373C293.058 118.353 293.115 120.254 293.034 121.682C292.823 125.361 292.054 128.994 290.982 132.473C289.693 136.655 288.078 140.346 286.315 144.337C284.911 147.518 283.169 151.723 279.676 153.174C282.022 156.526 280.895 159.257 279.328 162.816C278.182 165.417 276.669 168.105 274.364 169.827C271.766 171.767 268.948 170.121 266.231 168.838C264.589 168.063 259.571 166.235 260.591 163.851C259.338 163.683 258.549 162.772 257.408 162.491C256.2 162.194 256.407 162.685 255.129 162.869C254.149 163.01 252.683 162.132 251.76 161.817C250.219 161.293 248.682 160.755 247.143 160.224C242.81 158.73 238.551 157.26 234.175 156.063C226.035 153.837 217.794 152.574 209.681 150.586C208.055 150.187 206.438 149.803 204.745 149.484C204.396 149.418 202.582 149.317 202.361 148.942C201.975 148.286 203.162 144.612 203.264 143.863C203.932 138.949 203.714 133.57 202.772 128.711C202.381 126.692 200.634 124.077 200.649 122.105C200.659 120.783 201.83 119.339 202.518 118.141C204.218 115.179 206 111.978 207.259 108.896C209.188 104.18 210.369 98.8578 211.221 93.8074C211.664 91.1746 212.181 88.3203 212.302 85.6569C212.394 83.6268 212.227 81.4973 212.522 79.4182C211.399 79.5247 209.811 80.1069 208.799 79.4836C207.523 78.6971 207.18 76.4519 207.343 75.1109C202.971 75.8747 203.116 71.7248 203.387 68.4796C195.485 68.4796 205.604 56.7274 206.869 54.2037C207.45 53.0435 207.432 54.3467 207.176 52.5523C207.063 51.7634 206.524 50.8893 206.22 50.1641C205.556 48.5807 204.838 47.0216 204.071 45.4856C202.451 42.2413 200.615 39.1064 198.612 36.084C196.809 37.3414 195.184 38.83 193.678 40.4272C194.644 37.8989 197.595 34.7665 196.333 31.8954C195.163 29.2341 191.256 29.4187 188.948 29.9052C182.677 31.2285 176.663 33.1559 170.69 35.3873C172.54 36.4493 175.373 35.6289 177.212 34.8168C179.488 33.811 181.937 32.7557 184.39 32.223C186.53 31.7583 189.341 31.9168 188.722 34.8017C188.221 37.1393 185.937 39.3904 184.43 41.1382C181.109 44.989 176.945 47.97 172.854 50.9484C168.458 54.1504 164.221 57.6292 159.769 60.7381C151.72 66.3585 143.067 71.2433 134.751 76.4896C130.43 79.2156 125.534 81.4092 120.848 83.4296C115.693 85.6523 110.75 88.0317 105.402 89.7871C102.432 90.7623 99.4883 91.5646 96.5698 92.674C94.7404 93.3691 91.5548 94.762 90.3462 92.698C87.8913 88.5057 96.7748 82.9922 99.2091 80.429C100.888 82.0614 92.607 88.1445 93.2551 90.5215C93.7645 92.3893 95.7343 89.9775 96.6855 89.4683C98.2227 88.6453 100.043 88.2318 101.588 87.2931C104.757 85.3674 108.514 83.1469 109.237 79.1665C108.734 78.6346 108.74 78.1439 109.256 77.6938C109.486 77.4204 109.668 77.12 109.803 76.7925C110.028 76.1671 110.119 75.3836 110.239 74.7205C110.596 72.76 109.701 70.9245 110.537 69.006C105.654 72.7097 100.96 76.8931 96.3241 80.9025C92.166 84.4988 87.8272 89.2078 86.2992 94.5741C86.1034 95.2616 85.7781 96.0417 85.8137 96.7673C85.8833 98.1917 86.0254 97.8847 87.172 98.3428C88.3189 98.8008 89.9886 98.7614 91.2219 98.81C91.925 98.8373 95.0644 98.0923 94.4402 99.6363C94.0805 100.526 91.904 100.493 91.1247 100.575C89.1691 100.782 88.1085 100.57 89.0349 102.691C89.4504 103.642 90.2917 104.287 90.952 105.023C92.7889 107.07 93.7867 110.211 95.2317 112.617C96.8783 115.358 98.688 117.964 100.611 120.517C101.405 121.57 102.465 123.549 103.565 124.301C104.592 125.003 103.384 124.945 105.09 124.66C105.833 124.536 106.508 124.051 107.219 123.878C111.472 122.841 115.844 121.672 120.243 120.392C125.869 118.754 131.774 117.358 137.142 115C141.95 112.887 146.723 110.371 151.583 108.231C153.002 107.607 154.419 107.193 155.522 106.043C156.853 104.656 157.955 102.84 159.183 101.349C161.271 98.8125 163.196 96.2326 165.444 93.8288C167.117 92.0403 170.082 88.7154 172.442 88.0015C176.927 86.6455 174.527 93.4831 173.947 95.2112C175.001 95.4507 175.555 94.0972 176.793 94.4864C178.274 94.9529 178.428 96.925 178.613 98.1607C178.662 98.49 178.217 99.1053 178.352 99.3989C178.398 99.4991 179.365 100.071 179.552 100.336C180.229 101.3 180.095 102.471 179.839 103.51C178.512 108.892 173.794 112.821 170.324 116.791C171.876 116.497 173.027 115.611 174.492 115.173C175.868 114.761 177.25 114.782 178.637 114.664C180.088 114.541 181.482 113.997 182.967 113.969C184.525 113.94 186.017 114.385 187.562 114.561Z" fill="#2D3D8B"/>
<path fill-rule="evenodd" clip-rule="evenodd" d="M23.4617 66.1562C22.6061 66.7161 22.3649 67.2653 22.3353 68.5566C22.3235 69.0863 22.36 71.0622 23.0996 70.9875C23.7936 70.9176 23.4617 66.8356 23.4617 66.1562ZM19.0418 69.3745C19.4404 65.2355 20.9533 61.0272 24.5122 58.4483C25.3924 57.8105 26.388 57.8332 27.3526 57.4308C27.9323 57.1891 28.8482 56.0654 29.5064 56.1984C31.9292 56.6889 29.1301 59.9111 28.7202 60.7587C27.45 63.3846 27.5358 65.692 27.5737 68.5248C27.6026 70.6778 28.0496 74.3074 26.9651 76.256C25.8091 78.331 23.3019 76.9836 21.9024 75.7554C20.1361 74.205 18.8021 71.736 19.0418 69.3745Z" fill="#2D3D8B"/>
<path fill-rule="evenodd" clip-rule="evenodd" d="M61.5723 81.6052C61.5723 83.9148 63.4452 82.3512 63.3783 80.7085C63.2804 78.2898 61.485 79.7791 61.5723 81.6052ZM71.5289 68.8374C69.4791 70.6826 67.898 71.7178 67.5029 74.555C67.2039 76.7041 67.5012 78.8326 67.5139 80.9972C67.5353 84.6259 64.6078 88.4407 61.4574 84.2812C59.1594 81.2473 59.9837 76.4767 61.8575 73.4277C62.8409 71.828 64.2447 70.2454 65.8662 69.2484C67.086 68.4982 70.5168 67.022 71.5289 68.8374Z" fill="#2D3D8B"/>
<path fill-rule="evenodd" clip-rule="evenodd" d="M42.9028 124.76C42.6651 125.323 42.1073 127.621 43.2455 127.101C44.2504 126.642 43.5993 125.119 42.9028 124.76ZM36.8885 117.667C36.7128 116.803 36.7844 111.386 38.2749 111.792C39.4457 112.111 39.6391 114.883 40.1161 115.848C41.8922 119.441 45.9688 121.679 47.3745 125.388C48.9437 129.529 44.1996 129.658 41.6823 127.981C38.7017 125.995 36.977 121.132 36.8885 117.667Z" fill="#2D3D8B"/>
<path fill-rule="evenodd" clip-rule="evenodd" d="M33.2343 95.4583C33.8812 94.5841 33.9467 94.117 33.5779 93.3437C33.1065 93.8569 33.1902 94.5903 33.2343 95.4583ZM33.7024 99.3688C30.3302 99.7468 30.1613 93.5263 30.7389 91.3906C31.1988 89.6898 32.1876 87.862 33.2054 86.4761C33.411 86.1965 35.3608 83.6833 35.743 83.6772C37.2096 83.6542 36.8065 85.3128 36.6484 85.9303C36.1501 87.8755 35.9526 89.5015 36.0867 91.6585C36.2306 93.9664 37.3224 99.4454 33.7024 99.3688Z" fill="#2D3D8B"/>
<path fill-rule="evenodd" clip-rule="evenodd" d="M186.821 45.4991C181.999 49.5466 177.421 53.9287 172.178 57.4691C169.612 59.2017 166.93 60.7346 164.37 62.4955C163.066 63.3924 161.735 64.1952 160.289 64.8546C159.011 65.437 158.175 65.5127 159.236 64.1304C159.944 63.2069 161.533 62.5633 162.498 61.9069C163.984 60.896 165.387 59.7745 166.95 58.8777C169.705 57.2957 172.443 56.0186 174.982 54.0784C177.237 52.3571 179.562 50.676 181.713 48.8465C182.636 48.062 185.695 44.4599 186.821 45.4991Z" fill="#2D3D8B"/>
<path fill-rule="evenodd" clip-rule="evenodd" d="M186.918 60.1146C189.087 61.9714 183.661 67.0577 182.424 68.2105C181.119 69.4263 179.682 70.5108 178.263 71.5879C177.763 71.9672 175.038 74.5057 174.346 74.3008C172.982 73.8964 174.773 72.2495 175.239 71.8199C176.746 70.4293 178.286 69.0795 179.759 67.6514C181.088 66.3645 182.527 65.1726 183.812 63.8441C184.853 62.7679 185.728 60.944 186.918 60.1146Z" fill="#2D3D8B"/>
<path fill-rule="evenodd" clip-rule="evenodd" d="M26.2574 134.958C25.6912 133.644 24.6771 135.102 25.1912 135.758C25.6774 136.379 26.185 135.21 26.2574 134.958ZM22.9374 132.364C23.241 130.433 23.9425 129.36 25.7522 131.008C26.9959 132.141 29.497 135.361 29.2597 137.117C28.9482 139.42 26.4141 138.767 25.1005 137.563C23.754 136.328 23.1596 134.076 22.9374 132.364Z" fill="#2D3D8B"/>
<path fill-rule="evenodd" clip-rule="evenodd" d="M26.9034 170.367C24.6864 170.198 22.7949 168.495 21.8534 166.498C21.0612 164.819 20.3115 162.113 23.0945 162.995C24.9083 163.571 31.9005 170.638 26.9034 170.367Z" fill="#2D3D8B"/>
<path fill-rule="evenodd" clip-rule="evenodd" d="M53.7717 159.421C52.0585 159.812 50.3636 158.682 49.3101 157.409C48.6546 156.616 47.1288 153.835 47.8975 152.69C48.969 151.094 50.5868 154.303 51.1449 154.938C52.0202 155.933 54.8823 157.835 53.7717 159.421Z" fill="#2D3D8B"/>
<path fill-rule="evenodd" clip-rule="evenodd" d="M55.3148 116C53.9719 115.376 52.725 114.625 52.185 113.135C51.8415 112.186 51.553 109.341 53.0783 109.354C54.8425 109.37 58.8826 115.715 55.3148 116Z" fill="#2D3D8B"/>
<path fill-rule="evenodd" clip-rule="evenodd" d="M45.8991 86.3967C47.6973 86.3641 48.123 87.3567 48.3731 88.783C48.5429 89.7509 49.3667 93.0367 48.5111 93.7097C47.2888 94.6715 45.3444 92.4677 44.9514 91.6026C44.1412 89.8216 45.2614 88.0697 45.8991 86.3967Z" fill="#2D3D8B"/>
<path fill-rule="evenodd" clip-rule="evenodd" d="M76.7981 184.917C77.6737 185.315 79.6657 186.2 78.9045 187.572C78.1087 189.006 75.8237 187.612 74.9701 186.985C74.6128 186.722 72.3425 185.004 72.4375 184.428C72.6377 183.204 75.7672 184.802 76.7981 184.917Z" fill="#2D3D8B"/>
<path fill-rule="evenodd" clip-rule="evenodd" d="M19.1126 95.3094C19.7109 96.8092 20.3844 101.961 17.2337 99.1789C16.2722 98.3298 16.1271 97.2694 16.4584 96.1038C16.9374 94.4144 17.6345 94.7494 19.1126 95.3094Z" fill="#2D3D8B"/>
<path fill-rule="evenodd" clip-rule="evenodd" d="M186.078 76.125C185.38 74.6984 187.103 73.7781 188.023 72.8587C188.624 72.258 191.151 69.0006 191.979 69.1846C193.684 69.5632 186.916 75.4888 186.078 76.125Z" fill="#2D3D8B"/>
<path fill-rule="evenodd" clip-rule="evenodd" d="M45.8764 179.463C47.5204 179.199 47.9039 181.027 48.9631 181.824C49.4173 182.165 50.9765 182.466 50.6629 183.191C49.8388 185.096 45.7958 180.744 45.8764 179.463Z" fill="#2D3D8B"/>
<path fill-rule="evenodd" clip-rule="evenodd" d="M59.7585 136.298C60.8885 135.824 64.1499 138.367 63.2135 139.466C61.8137 141.11 59.8383 137.197 59.7585 136.298Z" fill="#2D3D8B"/>
<path fill-rule="evenodd" clip-rule="evenodd" d="M83.5765 173.089C82.7528 173.171 79.2769 172.078 80.5647 170.614C81.4689 169.585 83.8721 172.158 83.5765 173.089Z" fill="#2D3D8B"/>
<path fill-rule="evenodd" clip-rule="evenodd" d="M41.9517 166.064C41.134 166.391 38.1847 165.718 39.112 164.436C39.9953 163.215 41.9529 165.05 41.9517 166.064Z" fill="#2D3D8B"/>
<path fill-rule="evenodd" clip-rule="evenodd" d="M66.0966 171.594C67.0526 171.495 67.7432 172.072 67.9074 173.049C66.7117 173.22 66.3429 172.935 66.0966 171.594Z" fill="#2D3D8B"/>
<path fill-rule="evenodd" clip-rule="evenodd" d="M190.443 29.7524C190.847 29.7543 191.25 29.7564 191.65 29.7582C191.245 29.7561 190.844 29.7543 190.443 29.7524Z" fill="#2D3D8B"/>
<path fill-rule="evenodd" clip-rule="evenodd" d="M184.105 113.884C183.501 113.885 182.897 113.886 182.294 113.887C182.897 113.885 183.501 113.885 184.105 113.884Z" fill="#2D3D8B"/>
<path fill-rule="evenodd" clip-rule="evenodd" d="M101.752 15.4061C101.724 16.011 101.697 16.6159 101.668 17.2186C101.695 16.6132 101.724 16.0094 101.752 15.4061Z" fill="#2D3D8B"/>
<path fill-rule="evenodd" clip-rule="evenodd" d="M288.774 118.115C288.967 118.787 288.685 118.898 287.927 118.449C288.209 118.337 288.492 118.226 288.774 118.115Z" fill="#2D3D8B"/>
<path fill-rule="evenodd" clip-rule="evenodd" d="M271.63 170.825C271.933 170.827 272.236 170.829 272.535 170.831C272.231 170.829 271.93 170.827 271.63 170.825Z" fill="#2D3D8B"/>
<path fill-rule="evenodd" clip-rule="evenodd" d="M214.286 122.2C213.779 122.586 213.276 122.641 212.777 122.18C213.28 122.187 213.783 122.194 214.286 122.2Z" fill="#2D3D8B"/>
<path fill-rule="evenodd" clip-rule="evenodd" d="M202.987 70.6875C202.974 71.1918 202.961 71.6956 202.948 72.1979C202.961 71.6931 202.974 71.1903 202.987 70.6875Z" fill="#2D3D8B"/>
<path fill-rule="evenodd" clip-rule="evenodd" d="M229.074 24.0758C228.571 24.0755 228.068 24.0749 227.565 24.0743C228.069 23.8858 228.572 23.9478 229.074 24.0758Z" fill="#2D3D8B"/>
<path fill-rule="evenodd" clip-rule="evenodd" d="M81.4889 17.9294C80.986 17.959 80.4827 17.9887 79.9799 18.0183C80.4827 17.9887 80.986 17.959 81.4889 17.9294Z" fill="#2D3D8B"/>
<path fill-rule="evenodd" clip-rule="evenodd" d="M93.8631 18.0252C93.4607 17.9911 93.0579 17.9566 92.6559 17.9225C93.0579 17.9566 93.4604 17.9911 93.8631 18.0252Z" fill="#2D3D8B"/>
<path fill-rule="evenodd" clip-rule="evenodd" d="M100.503 18.5039C100.101 18.654 99.6984 18.7429 99.2957 18.506C99.6984 18.5054 100.101 18.5045 100.503 18.5039Z" fill="#2D3D8B"/>
<path fill-rule="evenodd" clip-rule="evenodd" d="M64.5875 19.3312C64.0841 19.4336 63.5813 19.536 63.0784 19.6375C63.5818 19.536 64.0846 19.4336 64.5875 19.3312Z" fill="#2D3D8B"/>
<path fill-rule="evenodd" clip-rule="evenodd" d="M203.29 142.281C203.276 142.584 203.262 142.886 203.249 143.187C203.263 142.884 203.276 142.583 203.29 142.281Z" fill="#2D3D8B"/>
<path fill-rule="evenodd" clip-rule="evenodd" d="M36.9633 117.812C36.9693 118.014 36.975 118.216 36.9805 118.417C36.9741 118.214 36.969 118.014 36.9633 117.812Z" fill="#2D3D8B"/>
<path fill-rule="evenodd" clip-rule="evenodd" d="M290.644 116.729L289.135 116.736C289.636 116.361 290.14 116.409 290.644 116.729Z" fill="#2D3D8B"/>
<path fill-rule="evenodd" clip-rule="evenodd" d="M187.424 114.589C187.022 114.523 186.619 114.456 186.217 114.39C186.619 114.456 187.022 114.523 187.424 114.589Z" fill="#2D3D8B"/>
<path fill-rule="evenodd" clip-rule="evenodd" d="M76.9618 184.871C76.4586 184.773 75.9559 184.675 75.4527 184.577L76.9618 184.871Z" fill="#2D3D8B"/>
<path fill-rule="evenodd" clip-rule="evenodd" d="M178.535 98.1771C178.526 97.8747 178.516 97.5722 178.507 97.2709C178.516 97.5733 178.526 97.8754 178.535 98.1771Z" fill="#2D3D8B"/>
<path fill-rule="evenodd" clip-rule="evenodd" d="M82.998 18.0296C82.696 17.9924 82.3941 17.9552 82.0925 17.9181C82.3941 17.9552 82.696 17.9924 82.998 18.0296Z" fill="#2D3D8B"/>
<path fill-rule="evenodd" clip-rule="evenodd" d="M132.495 10.5591C132.193 10.4676 131.891 10.3761 131.589 10.2845C131.891 10.3761 132.193 10.4676 132.495 10.5591Z" fill="#2D3D8B"/>
<path fill-rule="evenodd" clip-rule="evenodd" d="M168.41 214.31C168.612 214.322 168.814 214.335 169.014 214.347C168.811 214.334 168.611 214.322 168.41 214.31Z" fill="#2D3D8B"/>
<path fill-rule="evenodd" clip-rule="evenodd" d="M29.8793 52.0973C30.1823 52.1051 30.4853 52.1133 30.7847 52.1215C30.4802 52.1133 30.1797 52.1051 29.8793 52.0973Z" fill="#2D3D8B"/>
<path fill-rule="evenodd" clip-rule="evenodd" d="M232.394 24.3709C231.891 24.3355 231.388 24.3002 230.885 24.2645C231.389 24.3002 231.891 24.3355 232.394 24.3709Z" fill="#2D3D8B"/>
<path fill-rule="evenodd" clip-rule="evenodd" d="M73.34 22.9564C72.634 22.9576 71.929 22.9588 71.2273 22.96C71.9346 22.9588 72.6373 22.9576 73.34 22.9564Z" fill="#2D3D8B"/>
<path fill-rule="evenodd" clip-rule="evenodd" d="M215.931 85.1874C215.94 85.6915 215.95 86.1957 215.96 86.6978C215.951 86.1933 215.942 85.6902 215.931 85.1874Z" fill="#2D3D8B"/>
<path fill-rule="evenodd" clip-rule="evenodd" d="M178.974 193.343C178.57 193.337 178.167 193.33 177.766 193.324C178.171 193.329 178.572 193.336 178.974 193.343Z" fill="#2D3D8B"/>
<path fill-rule="evenodd" clip-rule="evenodd" d="M221.831 33.2877C222.434 33.2207 223.038 33.1536 223.642 33.0865C223.062 33.5995 222.436 33.2581 221.831 33.2877Z" fill="#2D3D8B"/>
<path fill-rule="evenodd" clip-rule="evenodd" d="M175.654 193.501C175.351 193.49 175.049 193.478 174.748 193.468C175.052 193.479 175.353 193.49 175.654 193.501Z" fill="#2D3D8B"/>
<path fill-rule="evenodd" clip-rule="evenodd" d="M165.218 198.771C165.234 199.275 165.249 199.779 165.264 200.281C165.25 199.776 165.234 199.273 165.218 198.771Z" fill="#2D3D8B"/>
<path fill-rule="evenodd" clip-rule="evenodd" d="M211.267 51.8367C211.67 51.7992 212.073 51.7618 212.475 51.7246C212.107 52.008 211.676 51.8421 211.267 51.8367Z" fill="#2D3D8B"/>
<path fill-rule="evenodd" clip-rule="evenodd" d="M79.3762 132.202C79.7786 132.276 80.1815 132.35 80.5835 132.423C80.181 132.35 79.7786 132.276 79.3762 132.202Z" fill="#2D3D8B"/>
<path fill-rule="evenodd" clip-rule="evenodd" d="M142.153 52.7148C142.655 52.2864 143.158 52.3329 143.662 52.7099C143.159 52.7112 142.656 52.713 142.153 52.7148Z" fill="#2D3D8B"/>
<path fill-rule="evenodd" clip-rule="evenodd" d="M123.268 67.9688C123.282 67.7673 123.296 67.5658 123.312 67.3646C123.298 67.5664 123.283 67.7676 123.268 67.9688Z" fill="#2D3D8B"/>
<path fill-rule="evenodd" clip-rule="evenodd" d="M211.11 62.229C211.114 62.6324 211.118 63.0359 211.123 63.4373C211.119 63.0329 211.115 62.631 211.11 62.229Z" fill="#2D3D8B"/>
<path fill-rule="evenodd" clip-rule="evenodd" d="M77.953 125.374C78.6152 125.599 79.9471 126.278 80.7187 126.188C81.3364 126.115 81.8456 125.364 82.4413 125.365C84.0455 125.367 83.7481 127.223 82.973 128.219C80.8769 130.914 76.1931 127.992 77.953 125.374Z" fill="#2D3D8B"/>
<path fill-rule="evenodd" clip-rule="evenodd" d="M84.5001 115.698C86.6877 116.263 85.5982 121.079 83.7592 121.41C81.5939 121.8 81.2165 117.884 81.6444 116.469C82.7587 117.131 82.0688 119.496 83.4731 118.842C84.366 118.426 84.2303 116.503 84.5001 115.698Z" fill="#2D3D8B"/>
</svg>
