<svg width="54" height="64" viewBox="0 0 54 64" fill="none" xmlns="http://www.w3.org/2000/svg">
<path d="M53.9125 21.6057L51.2342 15.8168C50.7222 14.7138 49.5537 13.9998 48.2566 13.9998H42.1202V12.9998C42.1202 11.3459 40.6665 9.99988 38.8802 9.99988H24.8404V5.99993H29.1604C30.3516 5.99993 31.3203 5.10294 31.3203 3.99995V1.99998C31.3203 0.896989 30.3516 0 29.1604 0H18.3605C17.1693 0 16.2006 0.896989 16.2006 1.99998V3.99995C16.2006 5.10294 17.1693 5.99993 18.3605 5.99993H22.6805V9.99988H6.48071C4.69442 9.99988 3.24076 11.3459 3.24076 12.9998V13.9998H1.08079C0.706037 13.9998 0.359363 14.1798 0.161726 14.4748C-0.0359114 14.7698 -0.0531912 15.1378 0.114206 15.4478L5.40073 25.2357V56.9993C5.40073 58.8583 6.78203 60.4102 8.64068 60.8572V61.9992C8.64068 63.1022 9.60942 63.9992 10.8006 63.9992H12.9606C14.1518 63.9992 15.1206 63.1022 15.1206 61.9992V60.9992H32.4003V61.9992C32.4003 63.1022 33.3691 63.9992 34.5603 63.9992H36.7203C37.9115 63.9992 38.8802 63.1022 38.8802 61.9992V60.8572C40.7389 60.4102 42.1202 58.8583 42.1202 56.9993V22.4137L43.5166 23.7067C43.7186 23.8947 43.9929 23.9997 44.2801 23.9997H47.5201V25.6967L45.5416 28.4446C45.2554 28.8406 45.3126 29.3696 45.6766 29.7066L47.5201 31.4136V32.7636L45.4735 36.5525C45.359 36.7665 45.3288 37.0105 45.3925 37.2415L46.4725 41.2415C46.5935 41.6875 47.0244 41.9995 47.5201 41.9995H50.76C51.1208 41.9995 51.4577 41.8325 51.6586 41.5545L53.8186 38.5545C53.9363 38.3905 54 38.1965 54 37.9995V21.9997C54 21.8637 53.9708 21.7297 53.9125 21.6057ZM18.3605 3.99995V1.99998H29.1604L29.1625 3.99995H24.8404H22.6805H18.3605ZM5.40073 12.9998C5.40073 12.4478 5.88456 11.9999 6.48071 11.9999H38.8802C39.4764 11.9999 39.9602 12.4478 39.9602 12.9998V13.9998H37.8002H5.40073V12.9998ZM36.7203 34.9996C36.7203 36.1026 35.7515 36.9995 34.5603 36.9995H12.9606C11.7694 36.9995 10.8006 36.1026 10.8006 34.9996H36.7203ZM10.8006 32.9996V24.9997C10.8006 24.8727 10.7747 24.7467 10.724 24.6287L6.99586 15.9998H22.6805V32.9996H10.8006ZM10.8006 38.4435C11.4389 38.7875 12.1701 38.9995 12.9606 38.9995H34.5603C35.3508 38.9995 36.082 38.7875 36.7203 38.4435V53.9993C36.7203 54.5513 36.2364 54.9993 35.6403 54.9993H11.8806C11.2845 54.9993 10.8006 54.5513 10.8006 53.9993V38.4435ZM36.7203 32.9996H24.8404V15.9998H36.7203V32.9996ZM12.9628 61.9992H10.8006V60.9992H12.9617L12.9628 61.9992ZM34.5603 61.9992V60.9992H36.7213L36.7224 61.9992H34.5603ZM39.9602 56.9993C39.9602 58.1023 38.9915 58.9993 37.8002 58.9993H33.4803H14.0406H9.72066C8.52944 58.9993 7.56069 58.1023 7.56069 56.9993V24.9997C7.56069 24.8447 7.52182 24.6907 7.4473 24.5527L2.82821 15.9998H4.32074H4.66958L8.64068 25.1917V33.9996V34.9996V35.9995V53.9993C8.64068 55.6533 10.0943 56.9993 11.8806 56.9993H35.6403C37.4266 56.9993 38.8802 55.6533 38.8802 53.9993V35.9995V34.9996V33.9996V15.9998H39.9602V19.9998V56.9993ZM51.84 37.6965L50.1823 39.9995H48.3636L47.5838 37.1155L49.5656 33.4466C49.6412 33.3086 49.6801 33.1546 49.6801 32.9996V30.9996C49.6801 30.7336 49.5667 30.4796 49.3636 30.2926L47.8301 28.8726L49.4986 26.5547C49.6163 26.3907 49.6801 26.1967 49.6801 25.9997V22.9997C49.6801 22.4467 49.1973 21.9997 48.6001 21.9997H44.7273L42.1202 19.5858V15.9998H48.2566C48.6886 15.9998 49.0785 16.2378 49.2492 16.6048L51.84 22.2047V37.6965Z" fill="black"/>
<path d="M47.5201 17.9998H45.3602V19.9997H47.5201V17.9998Z" fill="black"/>
<path d="M16.2006 43.9994H14.0406V45.9994H16.2006V43.9994Z" fill="black"/>
<path d="M20.5205 47.9994H18.3605V49.9994H20.5205V47.9994Z" fill="black"/>
<path d="M24.8404 43.9994H22.6805V45.9994H24.8404V43.9994Z" fill="black"/>
<path d="M33.4803 43.9994H31.3204V45.9994H33.4803V43.9994Z" fill="black"/>
<path d="M29.1604 47.9994H27.0004V49.9994H29.1604V47.9994Z" fill="black"/>
</svg>
